<?xml version="1.0" encoding="UTF-8"?>
<svg xmlns="http://www.w3.org/2000/svg" id="Layer_1" data-name="Layer 1" viewBox="0 0 24 24" width="18" height="18" style="fill: #faf9e8">
  <path d="m23.249,13.015c-.569-.645-1.389-1.015-2.249-1.015H2v-7.518c0-.841.38-1.673,1.093-2.12,1.089-.683,2.419-.347,3.107.571l.259.345-.483,2.771c-.058.334.011.678.194.963.425.662,1.323.824,1.952.352l3.606-2.704c.567-.425.71-1.217.327-1.814l-.013-.021c-.237-.37-.64-.602-1.079-.622l-2.906-.129-.174-.232c-.658-.877-1.593-1.542-2.669-1.755C2.44-.462,0,1.656,0,4.333c0,0,.004,5.71.006,7.923,0,.576.037,1.145.108,1.717.101.809.237,1.9.237,1.9.251,2.005,1.223,3.767,2.635,5.037l-.457,1.85c-.133.536.194,1.078.73,1.211.081.02.161.029.241.029.449,0,.857-.305.97-.76l.277-1.121c1.109.564,2.36.881,3.676.881h7.417c1.223,0,2.39-.273,3.44-.765l.249,1.005c.112.455.521.76.97.76.08,0,.16-.01.241-.029.536-.133.863-.675.73-1.211l-.41-1.66c1.53-1.282,2.591-3.12,2.854-5.226l.062-.501c.106-.854-.158-1.712-.728-2.357Zm-1.257,2.109l-.062.501c-.383,3.064-3.001,5.375-6.089,5.375h-7.417c-3.088,0-5.705-2.311-6.088-5.375l-.203-1.625h18.867c.291,0,.558.12.75.338.192.219.278.497.242.786Z"/>
</svg>
