<?xml version="1.0" encoding="UTF-8"?>
<svg xmlns="http://www.w3.org/2000/svg" id="dog-icon" data-name="Layer 1" viewBox="0 0 24 24" width="24" height="24">
  <path d="m22,5h-.382c-.309,0-.586-.171-.724-.447-.479-.958-1.442-1.553-2.512-1.553h-1.382V.77c0-.525-.522-.904-1.015-.726-1.157.416-1.985,1.523-1.985,2.824v1.632l-.964,2.839c-.143.395-.521.66-.94.661l-5.098.003c-1.091,0-2.1.353-2.923.948-.6-.277-2.075-1.141-2.075-2.951,0-.552-.448-1-1-1s-1,.448-1,1c0,2.472,1.596,3.834,2.688,4.476-.437.742-.687,1.606-.687,2.528l.002,8.503c0,1.377,1.122,2.498,2.499,2.498s2.499-1.121,2.499-2.499v-3.506l6-.003v3.504c0,1.378,1.122,2.5,2.5,2.5s2.5-1.122,2.5-2.5v-3.265c0-.4.041-.801.12-1.193l2.06-6.148c2.123-.094,3.82-1.851,3.82-3.996,0-.92-.701-1.898-2-1.898Z"/>
</svg>
