<?xml version="1.0" encoding="UTF-8"?>
<svg xmlns="http://www.w3.org/2000/svg" id="Layer_1" data-name="Layer 1" viewBox="0 0 24 24" width="18" height="18" style="fill: white;"><path d="M14,7c-1.65,0-3,1.35-3,3s1.35,3,3,3,3-1.35,3-3-1.35-3-3-3Zm0,4c-.55,0-1-.45-1-1s.45-1,1-1,1,.45,1,1-.45,1-1,1Zm-4-3.5c0,.83-.67,1.5-1.5,1.5s-1.5-.67-1.5-1.5,.67-1.5,1.5-1.5,1.5,.67,1.5,1.5Zm0,5c0,.83-.67,1.5-1.5,1.5s-1.5-.67-1.5-1.5,.67-1.5,1.5-1.5,1.5,.67,1.5,1.5Zm8-5c0-.83,.67-1.5,1.5-1.5s1.5,.67,1.5,1.5-.67,1.5-1.5,1.5-1.5-.67-1.5-1.5Zm3,5c0,.83-.67,1.5-1.5,1.5s-1.5-.67-1.5-1.5,.67-1.5,1.5-1.5,1.5,.67,1.5,1.5Zm-1-9.5H8c-2.21,0-4,1.79-4,4v6c0,2.21,1.79,4,4,4h12c2.21,0,4-1.79,4-4V7c0-2.21-1.79-4-4-4Zm2,10c0,1.1-.9,2-2,2H8c-1.1,0-2-.9-2-2V7c0-1.1,.9-2,2-2h12c1.1,0,2,.9,2,2v6Zm-3,7c0,.55-.45,1-1,1H5c-2.76,0-5-2.24-5-5v-7c0-.55,.45-1,1-1s1,.45,1,1v7c0,1.65,1.35,3,3,3h13c.55,0,1,.45,1,1Z"/></svg>
